<mxfile host="app.diagrams.net" modified="2022-10-22T04:33:51.873Z" agent="5.0 (Windows NT 10.0; Win64; x64) AppleWebKit/537.36 (KHTML, like Gecko) Chrome/106.0.0.0 Safari/537.36" etag="hFI55fZvHzWZzcrLqbtq" version="20.0.3" type="github">
  <diagram id="uTVjtZKUPvGAMwiiobvV" name="Page-1">
    <mxGraphModel dx="565" dy="292" grid="1" gridSize="10" guides="1" tooltips="1" connect="1" arrows="1" fold="1" page="1" pageScale="1" pageWidth="850" pageHeight="1100" math="0" shadow="0">
      <root>
        <mxCell id="0" />
        <mxCell id="1" parent="0" />
        <mxCell id="yhFrDDD-C00iYnata-Um-10" value="" style="rounded=0;whiteSpace=wrap;html=1;fillColor=#ABABAB;fontColor=#333333;strokeColor=#666666;" vertex="1" parent="1">
          <mxGeometry x="119" y="160" width="450" height="530" as="geometry" />
        </mxCell>
        <mxCell id="yhFrDDD-C00iYnata-Um-7" value="" style="shape=image;html=1;verticalAlign=top;verticalLabelPosition=bottom;labelBackgroundColor=#ffffff;imageAspect=0;aspect=fixed;image=https://cdn1.iconfinder.com/data/icons/unicons-line-vol-5/24/screw-128.png;rotation=-135;" vertex="1" parent="1">
          <mxGeometry x="240" y="449" width="90" height="90" as="geometry" />
        </mxCell>
        <mxCell id="yhFrDDD-C00iYnata-Um-8" value="" style="shape=image;html=1;verticalAlign=top;verticalLabelPosition=bottom;labelBackgroundColor=#ffffff;imageAspect=0;aspect=fixed;image=https://cdn1.iconfinder.com/data/icons/unicons-line-vol-5/24/screw-128.png;rotation=-135;" vertex="1" parent="1">
          <mxGeometry x="240" y="349" width="90" height="90" as="geometry" />
        </mxCell>
        <mxCell id="yhFrDDD-C00iYnata-Um-6" value="" style="shape=image;html=1;verticalAlign=top;verticalLabelPosition=bottom;labelBackgroundColor=#ffffff;imageAspect=0;aspect=fixed;image=https://cdn1.iconfinder.com/data/icons/unicons-line-vol-5/24/screw-128.png;rotation=45;" vertex="1" parent="1">
          <mxGeometry x="360" y="449" width="90" height="90" as="geometry" />
        </mxCell>
        <mxCell id="yhFrDDD-C00iYnata-Um-5" value="" style="shape=image;html=1;verticalAlign=top;verticalLabelPosition=bottom;labelBackgroundColor=#ffffff;imageAspect=0;aspect=fixed;image=https://cdn1.iconfinder.com/data/icons/unicons-line-vol-5/24/screw-128.png;rotation=45;" vertex="1" parent="1">
          <mxGeometry x="360" y="349" width="90" height="90" as="geometry" />
        </mxCell>
        <mxCell id="yhFrDDD-C00iYnata-Um-3" value="" style="rounded=0;whiteSpace=wrap;html=1;" vertex="1" parent="1">
          <mxGeometry x="280" y="330" width="130" height="230" as="geometry" />
        </mxCell>
        <mxCell id="yhFrDDD-C00iYnata-Um-1" value="" style="shape=image;html=1;verticalAlign=top;verticalLabelPosition=bottom;labelBackgroundColor=#ffffff;imageAspect=0;aspect=fixed;image=https://cdn1.iconfinder.com/data/icons/bootstrap-vol-3/16/outlet-128.png" vertex="1" parent="1">
          <mxGeometry x="280" y="330" width="128" height="128" as="geometry" />
        </mxCell>
        <mxCell id="yhFrDDD-C00iYnata-Um-2" value="" style="shape=image;html=1;verticalAlign=top;verticalLabelPosition=bottom;labelBackgroundColor=#ffffff;imageAspect=0;aspect=fixed;image=https://cdn1.iconfinder.com/data/icons/bootstrap-vol-3/16/outlet-128.png" vertex="1" parent="1">
          <mxGeometry x="280" y="430" width="128" height="128" as="geometry" />
        </mxCell>
        <mxCell id="yhFrDDD-C00iYnata-Um-12" value="" style="endArrow=none;html=1;rounded=0;exitX=0.649;exitY=0.414;exitDx=0;exitDy=0;exitPerimeter=0;strokeWidth=5;strokeColor=#FAFAFA;entryX=0.369;entryY=0.285;entryDx=0;entryDy=0;entryPerimeter=0;" edge="1" parent="1">
          <mxGeometry width="50" height="50" relative="1" as="geometry">
            <mxPoint x="275.04469157790436" y="405.99070455067226" as="sourcePoint" />
            <mxPoint x="275.04999999999995" y="280.04999999999995" as="targetPoint" />
          </mxGeometry>
        </mxCell>
        <mxCell id="yhFrDDD-C00iYnata-Um-13" value="" style="endArrow=none;html=1;rounded=0;entryX=0.356;entryY=0.058;entryDx=0;entryDy=0;entryPerimeter=0;exitX=0.649;exitY=0.414;exitDx=0;exitDy=0;exitPerimeter=0;strokeWidth=5;fillColor=#e51400;strokeColor=#B20000;sketch=0;" edge="1" parent="1">
          <mxGeometry width="50" height="50" relative="1" as="geometry">
            <mxPoint x="268.04469157790436" y="413.99070455067226" as="sourcePoint" />
            <mxPoint x="268.20000000000005" y="183.74" as="targetPoint" />
          </mxGeometry>
        </mxCell>
        <mxCell id="yhFrDDD-C00iYnata-Um-14" value="" style="endArrow=none;html=1;rounded=0;exitX=0.649;exitY=0.414;exitDx=0;exitDy=0;exitPerimeter=0;strokeWidth=5;" edge="1" parent="1">
          <mxGeometry width="50" height="50" relative="1" as="geometry">
            <mxPoint x="414.04469157790436" y="406.99070455067226" as="sourcePoint" />
            <mxPoint x="414" y="270" as="targetPoint" />
          </mxGeometry>
        </mxCell>
        <mxCell id="yhFrDDD-C00iYnata-Um-15" value="" style="endArrow=none;html=1;rounded=0;entryX=0.356;entryY=0.058;entryDx=0;entryDy=0;entryPerimeter=0;exitX=0.649;exitY=0.414;exitDx=0;exitDy=0;exitPerimeter=0;strokeWidth=5;fillColor=#e51400;strokeColor=#B20000;" edge="1" parent="1">
          <mxGeometry width="50" height="50" relative="1" as="geometry">
            <mxPoint x="422.04469157790436" y="414.99070455067226" as="sourcePoint" />
            <mxPoint x="422.20000000000005" y="184.74" as="targetPoint" />
          </mxGeometry>
        </mxCell>
        <mxCell id="yhFrDDD-C00iYnata-Um-16" value="&lt;b&gt;Hot #1&lt;br&gt;&lt;/b&gt;" style="text;html=1;strokeColor=none;fillColor=none;align=center;verticalAlign=middle;whiteSpace=wrap;rounded=0;" vertex="1" parent="1">
          <mxGeometry x="360" y="290" width="60" height="30" as="geometry" />
        </mxCell>
        <mxCell id="yhFrDDD-C00iYnata-Um-17" value="&lt;b&gt;&lt;font color=&quot;#ffffff&quot;&gt;Neutral&lt;/font&gt;&lt;br&gt;&lt;/b&gt;" style="text;html=1;strokeColor=none;fillColor=none;align=center;verticalAlign=middle;whiteSpace=wrap;rounded=0;" vertex="1" parent="1">
          <mxGeometry x="270" y="280" width="60" height="30" as="geometry" />
        </mxCell>
        <mxCell id="yhFrDDD-C00iYnata-Um-18" value="&lt;b&gt;&lt;font color=&quot;#cc0000&quot;&gt;Hot #2&lt;/font&gt;&lt;br&gt;&lt;/b&gt;" style="text;html=1;strokeColor=none;fillColor=none;align=center;verticalAlign=middle;whiteSpace=wrap;rounded=0;" vertex="1" parent="1">
          <mxGeometry x="260" y="190" width="60" height="30" as="geometry" />
        </mxCell>
        <mxCell id="yhFrDDD-C00iYnata-Um-19" value="&lt;b&gt;&lt;font color=&quot;#cc0000&quot;&gt;Hot #2&lt;/font&gt;&lt;br&gt;&lt;/b&gt;" style="text;html=1;strokeColor=none;fillColor=none;align=center;verticalAlign=middle;whiteSpace=wrap;rounded=0;" vertex="1" parent="1">
          <mxGeometry x="365" y="190" width="60" height="30" as="geometry" />
        </mxCell>
        <mxCell id="yhFrDDD-C00iYnata-Um-20" value="220V" style="labelPosition=right;align=left;shape=mxgraph.electrical.signal_sources.voltage;shadow=0;dashed=0;strokeWidth=1;fontSize=10;html=1;fontColor=#CC0000;fillColor=#ABABAB;" vertex="1" parent="1">
          <mxGeometry x="380" y="220" width="10" height="70" as="geometry" />
        </mxCell>
        <mxCell id="yhFrDDD-C00iYnata-Um-22" value="220V" style="labelPosition=right;align=left;shape=mxgraph.electrical.signal_sources.voltage;shadow=0;dashed=0;strokeWidth=1;fontSize=10;html=1;fontColor=#CC0000;fillColor=#ABABAB;rotation=-40;" vertex="1" parent="1">
          <mxGeometry x="330" y="205" width="10" height="100" as="geometry" />
        </mxCell>
        <mxCell id="yhFrDDD-C00iYnata-Um-23" value="110V" style="labelPosition=right;align=left;shape=mxgraph.electrical.signal_sources.voltage;shadow=0;dashed=0;strokeWidth=1;fontSize=10;html=1;fontColor=#CC0000;fillColor=#ABABAB;rotation=-90;" vertex="1" parent="1">
          <mxGeometry x="339" y="265" width="10" height="110" as="geometry" />
        </mxCell>
        <mxCell id="yhFrDDD-C00iYnata-Um-24" value="" style="endArrow=none;html=1;rounded=0;entryX=0.356;entryY=0.058;entryDx=0;entryDy=0;entryPerimeter=0;exitX=0.649;exitY=0.414;exitDx=0;exitDy=0;exitPerimeter=0;strokeWidth=5;fillColor=#e51400;strokeColor=#FFFFFF;sketch=0;dashed=1;" edge="1" parent="1">
          <mxGeometry width="50" height="50" relative="1" as="geometry">
            <mxPoint x="268.04469157790436" y="413.9907045506724" as="sourcePoint" />
            <mxPoint x="268.20000000000005" y="183.74" as="targetPoint" />
          </mxGeometry>
        </mxCell>
      </root>
    </mxGraphModel>
  </diagram>
</mxfile>
